<?xml version="1.0" encoding="UTF-8" standalone="no"?>
<!-- Created with Inkscape (http://www.inkscape.org/) -->

<svg
   xmlns:dc="http://purl.org/dc/elements/1.1/"
   xmlns:cc="http://creativecommons.org/ns#"
   xmlns:rdf="http://www.w3.org/1999/02/22-rdf-syntax-ns#"
   xmlns:svg="http://www.w3.org/2000/svg"
   xmlns="http://www.w3.org/2000/svg"
   xmlns:sodipodi="http://sodipodi.sourceforge.net/DTD/sodipodi-0.dtd"
   xmlns:inkscape="http://www.inkscape.org/namespaces/inkscape"
   width="300"
   height="300"
   viewBox="0 0 300 300"
   id="svg2"
   version="1.1"
   inkscape:version="0.91 r13725"
   sodipodi:docname="logo.svg"
   inkscape:export-filename="C:\Users\adrie\Pictures\Monkkey.png"
   inkscape:export-xdpi="89.942398"
   inkscape:export-ydpi="89.942398">
  <defs
     id="defs4" />
  <sodipodi:namedview
     id="base"
     pagecolor="#ffffff"
     bordercolor="#666666"
     borderopacity="1.0"
     inkscape:pageopacity="0.0"
     inkscape:pageshadow="2"
     inkscape:zoom="1.4"
     inkscape:cx="218.92841"
     inkscape:cy="126.71049"
     inkscape:document-units="px"
     inkscape:current-layer="layer2"
     showgrid="false"
     units="px"
     inkscape:window-width="1280"
     inkscape:window-height="657"
     inkscape:window-x="-8"
     inkscape:window-y="-8"
     inkscape:window-maximized="1" />
  <metadata
     id="metadata7">
    <rdf:RDF>
      <cc:Work
         rdf:about="">
        <dc:format>image/svg+xml</dc:format>
        <dc:type
           rdf:resource="http://purl.org/dc/dcmitype/StillImage" />
        <dc:title></dc:title>
      </cc:Work>
    </rdf:RDF>
  </metadata>
  <g
     inkscape:groupmode="layer"
     id="layer2"
     inkscape:label="bananas"
     style="display:inline">
    <path
       style="fill:#ffd800;fill-opacity:1;fill-rule:evenodd;stroke:none;stroke-width:1px;stroke-linecap:butt;stroke-linejoin:miter;stroke-opacity:1"
       d="m 206.40905,116.60059 c -2.79334,14.54619 -7.28587,30.66978 -14.494,46.59151 -28.72217,37.82562 -70.92364,59.39949 -113.876689,73.27489 -18.434796,5.95507 -46.725304,-2.8554 -58.353275,12.63958 -6.849189,9.12698 2.459729,16.95809 10.763221,24.78533 18.659204,17.58894 48.007387,17.05244 73.165053,12.08991 55.7791,-11.0028 108.94985,-43.23683 144.45953,-90.68363 7.18866,-20.14559 8.3566,-49.60004 7.58325,-75.36791 z"
       id="path4136"
       inkscape:connector-curvature="0"
       sodipodi:nodetypes="ccssssccc" />
    <path
       style="fill:#000000;fill-opacity:0.05780346;fill-rule:evenodd;stroke:none;stroke-width:1px;stroke-linecap:butt;stroke-linejoin:miter;stroke-opacity:1"
       d="m 231.81106,118.31918 -0.36879,16.11038 -9.94516,40.34128 -41.81001,45.41944 -75.42854,39.24716 -61.775429,4.24783 -24.887478,-10.40184 c -1.884035,7.39088 5.841615,14.00013 12.851639,20.60807 18.659199,17.58892 48.008402,17.05284 73.166068,12.09031 55.7791,-11.0028 108.94985,-43.23683 144.45953,-90.68363 7.18866,-20.14559 8.3566,-49.60004 7.58325,-75.36791 l -23.84508,-1.61109 z"
       id="path4150"
       inkscape:connector-curvature="0" />
    <path
       style="fill:#b08150;fill-opacity:1;fill-rule:evenodd;stroke:none;stroke-width:1px;stroke-linecap:butt;stroke-linejoin:miter;stroke-opacity:1"
       d="m 210.61939,62.592644 c 0,0 1.64335,23.52509 -4.21034,54.007946 l 49.24709,3.32968 c -0.88637,-29.534179 -4.33376,-54.209931 -4.33376,-54.209931 l -40.70299,-3.127695 z"
       id="path4140"
       inkscape:connector-curvature="0" />
    <path
       style="fill:#ffffff;fill-opacity:0.73410405;fill-rule:evenodd;stroke:none;stroke-width:1px;stroke-linecap:butt;stroke-linejoin:miter;stroke-opacity:1"
       d="m 224.36855,190.06669 c -9.95234,12.18488 -20.69085,24.10657 -33.36019,34.07305 -17.0416,13.40593 -34.87244,22.86497 -56.44592,33.87172 -2.61109,1.33216 -9.8995,4.95997 -8.28983,8.23988 1.76532,3.59692 9.17684,1.15221 13.32762,-0.40389 22.1197,-8.29239 44.52579,-20.57823 62.93009,-35.53005 13.29862,-10.80392 25.51957,-22.71857 33.02492,-38.09836 1.37664,-2.82103 1.85064,-7.90146 -1.26103,-9.0015 -3.76719,-1.33179 -6.90437,3.15014 -9.92566,6.84915 z"
       id="path4147"
       inkscape:connector-curvature="0"
       sodipodi:nodetypes="sasasasas" />
    <path
       style="fill:#000000;fill-opacity:0.05882353;fill-rule:evenodd;stroke:none;stroke-width:1px;stroke-linecap:butt;stroke-linejoin:miter;stroke-opacity:1"
       d="m 233.05227,64.317358 -1.24121,54.001822 23.84508,1.61109 c -0.88637,-29.534179 -4.33376,-54.209931 -4.33376,-54.209931 l -18.27011,-1.402981 z"
       id="path4154"
       inkscape:connector-curvature="0" />
  </g>
  <g
     inkscape:label="hat"
     inkscape:groupmode="layer"
     id="layer1"
     transform="translate(0,-752.36216)"
     style="display:inline">
    <path
       style="fill:#ffffff;fill-opacity:1;fill-rule:evenodd;stroke:none;stroke-width:0.33374217px;stroke-linecap:butt;stroke-linejoin:miter;stroke-opacity:1"
       d="m 180.67414,808.5563 7.49365,31.80184 46.01054,16.7029 35.58548,-36.99278 -7.667,-32.53741 z"
       id="path4203"
       inkscape:connector-curvature="0"
       sodipodi:nodetypes="cccccc" />
    <path
       style="fill:#ffde00;fill-opacity:1;fill-rule:evenodd;stroke:none;stroke-width:0.24999987px;stroke-linecap:butt;stroke-linejoin:miter;stroke-opacity:1"
       d="m 169.45256,852.47085 -0.005,0.20111 -4.6424,9.51881 5.45696,9.35598 6.28773,-9.17138 -4.91293,-9.72041 -1.4e-4,-0.10946 -2.18428,-0.0747 z"
       id="path4208"
       inkscape:connector-curvature="0" />
    <path
       style="fill:#12224b;fill-opacity:1;fill-rule:evenodd;stroke:none;stroke-width:0.33374217px;stroke-linecap:butt;stroke-linejoin:miter;stroke-opacity:1"
       d="m 184.51309,825.52228 5.39402,22.89491 c 0,0 28.63845,12.42847 42.91961,9.23465 15.82801,-3.53978 38.67698,-29.52274 38.67698,-29.52274 l -5.67153,-24.07223 -37.03421,27.33348 z"
       id="path4217"
       inkscape:connector-curvature="0"
       sodipodi:nodetypes="ccacccc" />
    <path
       style="fill:#ff8300;fill-opacity:1;fill-rule:evenodd;stroke:none;stroke-width:0.24999987px;stroke-linecap:butt;stroke-linejoin:miter;stroke-opacity:1"
       d="m 171.48357,810.84015 -1.01569,-0.0152 -1.01532,41.64588 2.18428,0.0747 -0.15327,-41.70536 z"
       id="path4224"
       inkscape:connector-curvature="0" />
    <path
       style="fill:#152e6f;fill-opacity:1;fill-rule:evenodd;stroke:none;stroke-width:0.34310818px;stroke-linecap:butt;stroke-linejoin:miter;stroke-opacity:1"
       d="m 159.62313,814.44937 66.10845,9.40297 57.01662,-40.92338 -68.11582,-8.75681 z"
       id="path4205"
       inkscape:connector-curvature="0"
       sodipodi:nodetypes="ccccc" />
  </g>
  <g
     inkscape:groupmode="layer"
     id="layer3"
     inkscape:label="mark"
     style="display:inline">
    <path
       style="fill:#5fd381;fill-opacity:1;fill-rule:evenodd;stroke:none;stroke-width:1px;stroke-linecap:butt;stroke-linejoin:miter;stroke-opacity:1"
       d="m 193.09856,228.08486 -1.5e-4,51.85462 19.10871,-20.2031 19.1087,20.2031 2.7e-4,-51.85462 z"
       id="path4234"
       inkscape:connector-curvature="0"
       sodipodi:nodetypes="cccccc" />
    <path
       style="fill:#000000;fill-opacity:0.09248556;fill-rule:evenodd;stroke:none;stroke-width:1px;stroke-linecap:butt;stroke-linejoin:miter;stroke-opacity:1"
       d="m 212.20707,228.08509 0,31.65111 19.10812,20.20318 0.001,-51.85429 -19.10941,0 z"
       id="path4239"
       inkscape:connector-curvature="0" />
    <circle
       style="color:#000000;clip-rule:nonzero;display:inline;overflow:visible;visibility:visible;opacity:1;isolation:auto;mix-blend-mode:normal;color-interpolation:sRGB;color-interpolation-filters:linearRGB;solid-color:#000000;solid-opacity:1;fill:#e5b517;fill-opacity:1;fill-rule:evenodd;stroke:#ff00ff;stroke-width:0;stroke-linecap:butt;stroke-linejoin:round;stroke-miterlimit:4;stroke-dasharray:none;stroke-dashoffset:0;stroke-opacity:1;color-rendering:auto;image-rendering:auto;shape-rendering:auto;text-rendering:auto;enable-background:accumulate"
       id="path4232"
       cx="212.2915"
       cy="227.07472"
       r="19.192942" />
    <path
       style="color:#000000;clip-rule:nonzero;display:inline;overflow:visible;visibility:visible;opacity:1;isolation:auto;mix-blend-mode:normal;color-interpolation:sRGB;color-interpolation-filters:linearRGB;solid-color:#000000;solid-opacity:1;fill:#000000;fill-opacity:0.09248556;fill-rule:evenodd;stroke:#ff00ff;stroke-width:0;stroke-linecap:butt;stroke-linejoin:round;stroke-miterlimit:4;stroke-dasharray:none;stroke-dashoffset:0;stroke-opacity:1;color-rendering:auto;image-rendering:auto;shape-rendering:auto;text-rendering:auto;enable-background:accumulate"
       d="m 212.29171,207.88192 a 19.192941,19.192941 0 0 0 -0.0846,0.003 l 0,38.37899 a 19.192941,19.192941 0 0 0 0.0846,0.004 19.192941,19.192941 0 0 0 19.19274,-19.19275 19.192941,19.192941 0 0 0 -19.19274,-19.19276 z"
       id="circle4241"
       inkscape:connector-curvature="0" />
  </g>
  <g
     inkscape:groupmode="layer"
     id="layer4"
     inkscape:label="monochrome"
     style="display:none">
    <path
       style="display:inline;fill-opacity:1;fill-rule:evenodd;stroke:none;stroke-width:1px;stroke-linecap:butt;stroke-linejoin:miter;stroke-opacity:1"
       d="m 253.76172,98.1875 c -6.87826,5.77225 -14.69003,11.16004 -21.29297,12.63672 -6.45161,1.44283 -15.8221,-0.30879 -24.16992,-2.65625 -0.58861,4.44189 -0.95602,3.56665 -1.89063,8.43359 -2.79334,14.54619 -7.28405,30.66812 -14.49218,46.58985 -28.72217,37.82562 -70.92391,59.39999 -113.876958,73.27539 -18.434795,5.95507 -46.725544,-2.85436 -58.353515,12.64062 -6.849189,9.12698 2.46018,16.95792 10.763672,24.78516 18.659204,17.58894 48.006398,17.05237 73.164061,12.08984 31.57504,-6.22839 62.31155,-19.26452 89.48438,-38.00781 l 0,31.96484 19.10937,-20.20312 19.10742,20.20117 0,0.002 0.002,0 0,-50.47265 a 19.192942,19.192942 0 0 0 0.0859,-0.76758 19.192941,19.192941 0 0 0 0.082,-1.625 19.192942,19.192942 0 0 0 -0.082,-1.625 19.192941,19.192941 0 0 0 -0.11718,-0.97461 19.192942,19.192942 0 0 0 -0.14258,-0.9375 19.192941,19.192941 0 0 0 -0.20703,-0.92773 19.192942,19.192942 0 0 0 -0.24024,-0.93555 19.192941,19.192941 0 0 0 -0.29883,-0.90039 19.192942,19.192942 0 0 0 -0.33593,-0.91992 19.192941,19.192941 0 0 0 -0.37696,-0.84375 19.192942,19.192942 0 0 0 -0.42773,-0.88477 19.192941,19.192941 0 0 0 -0.27734,-0.48438 c 6.80236,-7.01287 13.19659,-14.46221 19.09375,-22.34179 7.18866,-20.14559 8.35733,-49.60127 7.58398,-75.36914 -0.29835,-9.94108 -1.24506,-13.70006 -1.89453,-21.74219 z m -20.85156,84.79102 c 0.45221,-0.002 0.91386,0.0718 1.38476,0.23828 3.11167,1.10004 2.63641,6.18092 1.25977,9.00195 -3.37671,6.91947 -7.71386,13.13387 -12.66797,18.86523 a 19.192942,19.192942 0 0 0 -0.004,-0.002 19.192941,19.192941 0 0 0 -0.78515,-0.48047 19.192942,19.192942 0 0 0 -0.86719,-0.49804 19.192941,19.192941 0 0 0 -0.81836,-0.39454 19.192942,19.192942 0 0 0 -0.92969,-0.41601 19.192941,19.192941 0 0 0 -0.83008,-0.30274 19.192942,19.192942 0 0 0 -0.98046,-0.32617 19.192941,19.192941 0 0 0 -0.85352,-0.21875 19.192942,19.192942 0 0 0 -1.01563,-0.22656 19.192941,19.192941 0 0 0 -0.9082,-0.13672 19.192942,19.192942 0 0 0 -0.95898,-0.11719 19.192941,19.192941 0 0 0 -1.52539,-0.0781 19.192942,19.192942 0 0 0 -0.11914,-0.006 19.192942,19.192942 0 0 0 -3.93946,0.41602 c 5.64423,-5.8594 10.93594,-12.00891 16.01758,-18.23047 2.64363,-3.23664 5.37551,-7.07165 8.54102,-7.08789 z m -39.08789,38.88476 a 19.192942,19.192942 0 0 0 -0.72461,5.21094 19.192942,19.192942 0 0 0 0.0371,1.00976 l -0.0371,0 0,9.41016 c -16.37133,11.71736 -35.03098,21.43045 -53.49805,28.35352 -4.15078,1.5561 -11.56085,4.00121 -13.32617,0.40429 -1.60967,-3.27991 5.67797,-6.90807 8.28906,-8.24023 21.57348,-11.00675 39.40371,-20.46516 56.44531,-33.8711 0.94998,-0.7473 1.8857,-1.50874 2.81446,-2.27734 z"
       id="path4279"
       inkscape:connector-curvature="0" />
    <path
       style="fill-opacity:1;fill-rule:evenodd;stroke:none;stroke-width:0.24999987px;stroke-linecap:butt;stroke-linejoin:miter;stroke-opacity:1"
       d="m 214.63281,21.810547 -55.00976,40.277344 10.7207,1.52539 -0.89063,36.496099 -0.006,0.20117 -4.64258,9.51757 5.45703,9.35743 6.28906,-9.17188 -4.91406,-9.7207 0,-0.10938 -0.13281,-36.406246 54.22851,7.71289 57.01563,-40.923828 -68.11524,-8.755859 z m 51.19922,29.884765 -37.0332,27.332032 -44.28516,-5.867188 5.39258,22.894532 c 0,0 28.63876,12.428192 42.91992,9.234372 15.82801,-3.53978 38.67774,-29.521482 38.67774,-29.521482 l -5.67188,-24.072266 z"
       id="path4296"
       inkscape:connector-curvature="0" />
  </g>
</svg>
